<svg width="41" height="40" viewBox="0 0 41 40" fill="none" xmlns="http://www.w3.org/2000/svg">
<g filter="url(#filter0_i_182_1558)">
<g clip-path="url(#clip0_182_1558)">
<path d="M21.3657 5.37775L19.3157 3.38886L17.7098 4.95553L19.7484 6.94442L21.3657 5.37775ZM18.2223 11.6666H14.8057V13.8889H18.2223V11.6666ZM28.4723 0.611084H26.1946V3.88886H28.4723V0.611084V0.611084ZM36.9571 4.95553L35.3512 3.38886L33.3126 5.37775L34.9184 6.94442L36.9571 4.95553ZM33.3012 20.1778L35.3398 22.1778L36.9457 20.6111L34.8957 18.6222L33.3012 20.1778ZM36.4446 11.6666V13.8889H39.8612V11.6666H36.4446ZM27.3334 6.11108C23.5637 6.11108 20.5001 9.09997 20.5001 12.7778C20.5001 16.4555 23.5637 19.4444 27.3334 19.4444C31.1032 19.4444 34.1668 16.4555 34.1668 12.7778C34.1668 9.09997 31.1032 6.11108 27.3334 6.11108ZM26.1946 24.9444H28.4723V21.6666H26.1946V24.9444ZM17.7098 20.6L19.3157 22.1666L21.3543 20.1666L19.7484 18.6L17.7098 20.6Z" fill="#42855B"/>
</g>
<g clip-path="url(#clip1_182_1558)">
<path d="M22.7778 15.5554H9.11117C7.85839 15.5554 6.83339 16.5554 6.83339 17.7776V31.111C6.83339 32.3332 7.85839 33.3332 9.11117 33.3332H22.7778C24.0306 33.3332 25.0556 32.3332 25.0556 31.111V17.7776C25.0556 16.5554 24.0306 15.5554 22.7778 15.5554ZM13.0973 23.8888C13.0973 24.811 12.3342 25.5554 11.3889 25.5554H10.2501V27.7776H8.54172V21.111H11.3889C12.3342 21.111 13.0973 21.8554 13.0973 22.7776V23.8888ZM18.7917 26.111C18.7917 27.0332 18.0287 27.7776 17.0834 27.7776H14.2362V21.111H17.0834C18.0287 21.111 18.7917 21.8554 18.7917 22.7776V26.111ZM23.3473 22.7776H21.6389V23.8888H23.3473V25.5554H21.6389V27.7776H19.9306V21.111H23.3473V22.7776ZM10.2501 23.8888H11.3889V22.7776H10.2501V23.8888ZM4.55561 19.9999H2.27783V35.5554C2.27783 36.7776 3.30283 37.7776 4.55561 37.7776H20.5001V35.5554H4.55561V19.9999ZM15.9445 26.111H17.0834V22.7776H15.9445V26.111Z" fill="#42855B"/>
</g>
</g>
<defs>
<filter id="filter0_i_182_1558" x="0" y="0" width="41.0005" height="44" filterUnits="userSpaceOnUse" color-interpolation-filters="sRGB">
<feFlood flood-opacity="0" result="BackgroundImageFix"/>
<feBlend mode="normal" in="SourceGraphic" in2="BackgroundImageFix" result="shape"/>
<feColorMatrix in="SourceAlpha" type="matrix" values="0 0 0 0 0 0 0 0 0 0 0 0 0 0 0 0 0 0 127 0" result="hardAlpha"/>
<feOffset dy="4"/>
<feGaussianBlur stdDeviation="2"/>
<feComposite in2="hardAlpha" operator="arithmetic" k2="-1" k3="1"/>
<feColorMatrix type="matrix" values="0 0 0 0 0 0 0 0 0 0 0 0 0 0 0 0 0 0 0.25 0"/>
<feBlend mode="normal" in2="shape" result="effect1_innerShadow_182_1558"/>
</filter>
<clipPath id="clip0_182_1558">
<rect width="27.3333" height="26.6667" fill="white" transform="translate(13.667)"/>
</clipPath>
<clipPath id="clip1_182_1558">
<rect width="27.3333" height="26.6667" fill="white" transform="translate(0 13.3333)"/>
</clipPath>
</defs>
</svg>