<svg width="48" height="44" viewBox="0 0 48 44" fill="none" xmlns="http://www.w3.org/2000/svg">
<g clip-path="url(#clip0_182_1551)">
<path d="M24.6152 22.1506C24.6152 20.1104 26.4101 18.4102 28.5639 18.4102C30.7178 18.4102 32.5126 20.1104 32.5126 22.1506H24.6152ZM24.6152 22.1506C24.6152 24.1907 22.8203 25.8909 20.6665 25.8909C18.5126 25.8909 16.7178 24.1907 16.7178 22.1506H24.6152ZM24.6152 22.1506C22.4614 22.1506 20.6665 20.4504 20.6665 18.4102C20.6665 16.3701 22.4614 14.6699 24.6152 14.6699V22.1506ZM24.6152 22.1506C26.7691 22.1506 28.5639 23.8507 28.5639 25.8909C28.5639 27.9311 26.7691 29.6312 24.6152 29.6312V22.1506Z" fill="#42855B"/>
</g>
<g clip-path="url(#clip1_182_1551)">
<path d="M14 12.581H34V17.9729L42 10.7837L34 3.59448V8.98637H10V19.7702H14V12.581ZM34 30.5539H14V25.162L6 32.3512L14 39.5404V34.1485H38V23.3648H34V30.5539Z" fill="#42855B"/>
</g>
<defs>
<clipPath id="clip0_182_1551">
<rect width="17.2308" height="16.3214" fill="white" transform="translate(16 13.9897)"/>
</clipPath>
<clipPath id="clip1_182_1551">
<rect width="48" height="43.1351" fill="white"/>
</clipPath>
</defs>
</svg>